<?xml version="1.0" encoding="UTF-8"?>
<svg xmlns="http://www.w3.org/2000/svg" viewBox="0 0 37 44.19">
  <defs>
    <style>
      .c {
        fill: #dd984b;
        stroke-width: 0px;
      }
    </style>
  </defs>
  <g id="a" data-name="b">
    <path class="c" d="M21.34,29.74c0,2.76-1.02,5.04-2.36,5.49v8.96h-.96v-8.96c-1.34-.45-2.36-2.73-2.36-5.49s1.02-5.05,2.36-5.5v-7.54c-.78-.28-1.35-1.27-1.35-2.46,0-1.41.81-2.56,1.8-2.56s1.8,1.15,1.8,2.56c0,1.16-.54,2.13-1.29,2.44v7.56c1.34.45,2.36,2.74,2.36,5.5Z"/>
  </g>
  <g id="b" data-name="Layer 2">
    <path class="c" d="M6.57.06c.4.12.76.39.84.97.07.51-.12,1.02-.48,1.4-1.83,1.94-8.88,10.64.05,21.29.34.4.57.89.6,1.42.04.72-.31,1.47-2.17.91,0,0-11.8-10.83-.56-25.38.4-.52,1.08-.79,1.71-.61Z"/>
    <path class="c" d="M11.62,4.7c.27.08.52.26.58.66.05.35-.09.7-.33.95-1.24,1.32-6.05,7.26.04,14.51.23.27.39.61.41.97.03.49-.21,1-1.48.62,0,0-8.05-7.38-.38-17.3.28-.36.74-.54,1.17-.41Z"/>
    <path class="c" d="M15.25,8.27c.16.05.31.16.34.4.03.21-.05.42-.2.57-.74.79-3.62,4.34.02,8.69.14.16.23.36.24.58.02.29-.12.6-.89.37,0,0-4.82-4.42-.23-10.36.16-.21.44-.32.7-.25Z"/>
    <path class="c" d="M30.43.06c-.4.12-.76.39-.84.97-.07.51.12,1.02.48,1.4,1.83,1.94,8.88,10.64-.05,21.29-.34.4-.57.89-.6,1.42-.04.72.31,1.47,2.17.91,0,0,11.8-10.83.56-25.38-.4-.52-1.08-.79-1.71-.61Z"/>
    <path class="c" d="M25.38,4.7c-.27.08-.52.26-.58.66-.05.35.09.7.33.95,1.24,1.32,6.05,7.26-.04,14.51-.23.27-.39.61-.41.97-.03.49.21,1,1.48.62,0,0,8.05-7.38.38-17.3-.28-.36-.74-.54-1.17-.41Z"/>
    <path class="c" d="M21.76,8.27c-.16.05-.31.16-.34.4-.03.21.05.42.2.57.74.79,3.62,4.34-.02,8.69-.14.16-.23.36-.24.58-.02.29.12.6.89.37,0,0,4.82-4.42.23-10.36-.16-.21-.44-.32-.7-.25Z"/>
  </g>
</svg>