<?xml version="1.0" encoding="UTF-8"?>
<svg id="a" data-name="Layer 2" xmlns="http://www.w3.org/2000/svg" viewBox="0 0 582 732">
  <defs>
    <style>
      .b {
        fill: #1b5674;
      }

      .b, .c {
        stroke-width: 0px;
      }

      .c {
        fill: #de994a;
      }
    </style>
  </defs>
  <path class="c" d="M476.73,133.24s-172.09,37.28-296.94,142.21c0,0-167.33,145.19-85.58,195.59,9.85,6.08,21.24,9.21,32.81,9.51,32.74.87,121.73-3.3,203.15-65.45,0,0,39.98-31.59,11.24-37.52-5.7-1.18-11.61-.78-17.18.93-35.68,10.93-215.92,60.64-90.4-93.31,1.09-1.34,2.17-2.69,3.23-4.06,7.88-10.2,63.66-75.94,238.3-143.98,1.12-.44,2.03-1.35,2.31-2.52.18-.74.06-1.4-.95-1.42Z"/>
  <path class="b" d="M123.48,584.61s171.9-38.56,296.04-144.48c0,0,166.35-146.51,84.19-196.35-9.9-6.01-21.31-9.06-32.9-9.28-32.76-.63-121.77,4.19-202.77,66.98,0,0-39.77,31.91-10.98,37.63,5.71,1.13,11.63.69,17.18-1.06,35.62-11.2,215.58-62.26,91.13,92.72-1.08,1.35-2.15,2.71-3.2,4.09-7.81,10.26-63.13,76.46-237.36,145.82-1.12.44-2.02,1.37-2.3,2.54-.18.74-.05,1.4.96,1.41Z"/>
  <ellipse class="c" cx="472.14" cy="196.82" rx="27.4" ry="17.96"/>
</svg>